# xmcd
#
# Track frame offsets: 
#        150
#        14897
#        29500
#        49882
#        68950
#        86222
#        103247
#        123637
#        145482
#        159632
#        175552
#        196847
#        213205
#        234545
#        254680
#        275710
#        297722
#        313192
#
# Disc length: 4466 seconds
#
# Revision: 0
# Processed by: cddbd v1.5.2PL0 Copyright (c) Steve Scherf et al.
# Submitted via: ExactAudioCopy v0.99pb3
#
DISCID=28117012
DTITLE=Various Artist - Christmas Album
DYEAR=1900
DGENRE=Christian Rock
TTITLE0=The First Noel
TTITLE1=The Christmas Song
TTITLE2=Little Drummer Boy
TTITLE3=One Wish
TTITLE4=Cantigue De Nael - (O Holy Night)
TTITLE5=I' Will Be Home For Christmas
TTITLE6=Deck The Halls - Sillent Night
TTITLE7=Have Yourself  aMerry Christmas
TTITLE8=O Come O Come Emmanuel
TTITLE9=Who Would Imagine A king
TTITLE10=Joy To The World
TTITLE11=Whatchulookinat
TTITLE12=On My Own
TTITLE13=I Will Always love You
TTITLE14=Where Do Broken Hearts Go
TTITLE15=Greates Love Of All
TTITLE16=Exhale
TTITLE17=I Who have Nothing
EXTD=
EXTT0=
EXTT1=
EXTT2=
EXTT3=
EXTT4=
EXTT5=
EXTT6=
EXTT7=
EXTT8=
EXTT9=
EXTT10=
EXTT11=
EXTT12=
EXTT13=
EXTT14=
EXTT15=
EXTT16=
EXTT17=
PLAYORDER=
